<svg width="217" height="237" viewBox="0 0 217 237" fill="none" xmlns="http://www.w3.org/2000/svg">
<g clip-path="url(#clip0)">
<mask id="mask0" mask-type="alpha" maskUnits="userSpaceOnUse" x="0" y="21" width="217" height="216">
<path d="M108.8 237C168.447 237 216.8 188.647 216.8 129C216.8 69.3532 168.447 21 108.8 21C49.1532 21 0.799988 69.3532 0.799988 129C0.799988 188.647 49.1532 237 108.8 237Z" fill="white"/>
</mask>
<g mask="url(#mask0)">
<path d="M108.8 237C168.447 237 216.8 188.647 216.8 129C216.8 69.3532 168.447 21 108.8 21C49.1532 21 0.799988 69.3532 0.799988 129C0.799988 188.647 49.1532 237 108.8 237Z" fill="#E6E6E6"/>
<path fill-rule="evenodd" clip-rule="evenodd" d="M0.799988 21H217.245V237H0.799988V21Z" fill="#4462FF"/>
</g>
<mask id="mask1" mask-type="alpha" maskUnits="userSpaceOnUse" x="-10" y="-15" width="238" height="252">
<path d="M0.8 129H-10V-15H227.6V129H216.8C216.8 188.647 168.447 237 108.8 237C49.153 237 0.8 188.647 0.8 129V129Z" fill="white"/>
</mask>
<g mask="url(#mask1)">
<mask id="mask2" mask-type="alpha" maskUnits="userSpaceOnUse" x="18" y="17" width="181" height="221">
<path d="M130.4 147.55V164.1H134C169.788 164.1 198.8 193.112 198.8 228.9V237H18.8V228.9C18.8 193.112 47.812 164.1 83.6 164.1H87.2V147.55C71.686 140.18 60.535 125.118 58.675 107.293C53.432 106.552 49.4 102.047 49.4 96.6V84C49.4 78.649 53.292 74.206 58.4 73.35V67.8C58.4 39.965 80.965 17.4 108.8 17.4C136.635 17.4 159.2 39.965 159.2 67.8V73.35C164.308 74.206 168.2 78.649 168.2 84V96.6C168.2 102.047 164.168 106.552 158.925 107.293C157.065 125.118 145.914 140.18 130.4 147.55V147.55Z" fill="white"/>
</mask>
<g mask="url(#mask2)">
<path d="M130.4 147.55V164.1H134C169.788 164.1 198.8 193.112 198.8 228.9V237H18.8V228.9C18.8 193.112 47.812 164.1 83.6 164.1H87.2V147.55C71.686 140.18 60.535 125.118 58.675 107.293C53.432 106.552 49.4 102.047 49.4 96.6V84C49.4 78.649 53.292 74.206 58.4 73.35V67.8C58.4 39.965 80.965 17.4 108.8 17.4C136.635 17.4 159.2 39.965 159.2 67.8V73.35C164.308 74.206 168.2 78.649 168.2 84V96.6C168.2 102.047 164.168 106.552 158.925 107.293C157.065 125.118 145.914 140.18 130.4 147.55V147.55Z" fill="#D0C6AC"/>
<path fill-rule="evenodd" clip-rule="evenodd" d="M-10 17.4H228.384V237.755H-10V17.4Z" fill="#FFDBB4"/>
<path fill-rule="evenodd" clip-rule="evenodd" d="M159.2 102V109.2C159.2 137.035 136.635 159.6 108.8 159.6C80.965 159.6 58.4 137.035 58.4 109.2V102C58.4 129.835 80.965 152.4 108.8 152.4C136.635 152.4 159.2 129.835 159.2 102V102Z" fill="black" fill-opacity="0.1"/>
</g>
<mask id="mask3" mask-type="alpha" maskUnits="userSpaceOnUse" x="18" y="149" width="181" height="89">
<path d="M87.2 149.764V166.8C87.2 178.73 96.87 188.4 108.8 188.4C120.73 188.4 130.4 178.73 130.4 166.8V149.764C146.527 151.568 158.948 156.497 159.196 169.18C182.468 179.011 198.8 202.048 198.8 228.9V237H18.8V228.9C18.8 202.048 35.132 179.011 58.404 169.18C58.652 156.497 71.074 151.568 87.2 149.764V149.764Z" fill="white"/>
</mask>
<g mask="url(#mask3)">
<path d="M87.2 149.764V166.8C87.2 178.73 96.87 188.4 108.8 188.4C120.73 188.4 130.4 178.73 130.4 166.8V149.764C146.527 151.568 158.948 156.497 159.196 169.18C182.468 179.011 198.8 202.048 198.8 228.9V237H18.8V228.9C18.8 202.048 35.132 179.011 58.404 169.18C58.652 156.497 71.074 151.568 87.2 149.764V149.764Z" fill="#B7C1DB"/>
<path fill-rule="evenodd" clip-rule="evenodd" d="M-10 138H228.491V237H-10V138Z" fill="#293347"/>
<path fill-rule="evenodd" clip-rule="evenodd" d="M81.8 193.565V237H75.5V190.335C77.5324 191.539 79.6363 192.617 81.8 193.565V193.565ZM142.1 190.335V226.65C142.1 227.485 141.768 228.287 141.177 228.877C140.587 229.468 139.785 229.8 138.95 229.8C138.115 229.8 137.313 229.468 136.723 228.877C136.132 228.287 135.8 227.485 135.8 226.65V193.565C137.964 192.617 140.068 191.539 142.1 190.335V190.335Z" fill="#F4F4F4"/>
<path fill-rule="evenodd" clip-rule="evenodd" d="M108.79 199.2C78.678 199.197 48.95 184.816 48.95 167.077C48.95 157.119 58.318 152.014 71.864 149.452C63.688 152.467 58.4 157.535 58.4 165.969C58.4 184.319 83.433 199.196 108.79 199.2ZM145.736 149.452C159.282 152.014 168.65 157.119 168.65 167.077C168.65 184.817 138.922 199.197 108.81 199.2C134.167 199.196 159.2 184.32 159.2 165.97C159.2 157.535 153.912 152.467 145.736 149.452Z" fill="black" fill-opacity="0.16"/>
</g>
<mask id="mask4" mask-type="alpha" maskUnits="userSpaceOnUse" x="91" y="117" width="35" height="18">
<path d="M91.806 119.215C92.758 127.758 100.003 134.4 108.8 134.4C117.624 134.4 124.887 127.717 125.803 119.136C125.876 118.446 125.105 117.3 124.138 117.3H93.578C92.606 117.3 91.711 118.36 91.806 119.215V119.215Z" fill="white"/>
</mask>
<g mask="url(#mask4)">
<path d="M91.806 119.215C92.758 127.758 100.003 134.4 108.8 134.4C117.624 134.4 124.887 127.717 125.803 119.136C125.876 118.446 125.105 117.3 124.138 117.3H93.578C92.606 117.3 91.711 118.36 91.806 119.215V119.215Z" fill="black" fill-opacity="0.7"/>
<path fill-rule="evenodd" clip-rule="evenodd" d="M99.8 107.4H118.7C119.893 107.4 121.038 107.874 121.882 108.718C122.726 109.562 123.2 110.706 123.2 111.9V117.3C123.2 118.493 122.726 119.638 121.882 120.482C121.038 121.326 119.893 121.8 118.7 121.8H99.8C98.6065 121.8 97.4619 121.326 96.618 120.482C95.7741 119.638 95.3 118.493 95.3 117.3V111.9C95.3 110.706 95.7741 109.562 96.618 108.718C97.4619 107.874 98.6065 107.4 99.8 107.4V107.4Z" fill="white"/>
<path d="M104.3 147C109.768 147 114.2 142.568 114.2 137.1C114.2 131.632 109.768 127.2 104.3 127.2C98.8324 127.2 94.4 131.632 94.4 137.1C94.4 142.568 98.8324 147 104.3 147Z" fill="#FF4F6D"/>
<path d="M113.3 147C118.768 147 123.2 142.568 123.2 137.1C123.2 131.632 118.768 127.2 113.3 127.2C107.832 127.2 103.4 131.632 103.4 137.1C103.4 142.568 107.832 147 113.3 147Z" fill="#FF4F6D"/>
</g>
<path fill-rule="evenodd" clip-rule="evenodd" d="M98 102C98 105.976 102.835 109.2 108.8 109.2C114.765 109.2 119.6 105.976 119.6 102" fill="black" fill-opacity="0.16"/>
<path fill-rule="evenodd" clip-rule="evenodd" d="M72.944 86.203C74.606 82.783 78.348 80.4 82.698 80.4C87.032 80.4 90.763 82.767 92.434 86.166C92.93 87.176 92.224 88.003 91.512 87.39C89.306 85.494 86.172 84.31 82.698 84.31C79.331 84.31 76.286 85.42 74.094 87.214C73.292 87.87 72.458 87.203 72.944 86.203V86.203ZM125.144 86.203C126.806 82.783 130.548 80.4 134.898 80.4C139.232 80.4 142.963 82.767 144.634 86.166C145.13 87.176 144.424 88.003 143.712 87.39C141.506 85.494 138.372 84.31 134.898 84.31C131.531 84.31 128.486 85.42 126.294 87.214C125.492 87.87 124.658 87.203 125.144 86.203V86.203Z" fill="black" fill-opacity="0.6"/>
<path fill-rule="evenodd" clip-rule="evenodd" d="M82.293 64.334C77.066 64.575 68.617 68.373 68.835 73.643C68.842 73.815 69.095 73.891 69.219 73.759C71.699 71.095 89.303 68.404 95.504 69.83C96.071 69.96 96.502 69.4 96.143 68.996C93.063 65.533 86.975 64.113 82.293 64.334V64.334ZM136.207 64.334C141.434 64.575 149.883 68.373 149.665 73.643C149.658 73.815 149.405 73.891 149.281 73.759C146.801 71.095 129.197 68.404 122.996 69.83C122.429 69.96 121.998 69.4 122.357 68.996C125.437 65.533 131.525 64.113 136.207 64.334" fill="black" fill-opacity="0.6"/>
<mask id="mask5" mask-type="alpha" maskUnits="userSpaceOnUse" x="-10" y="-15" width="238" height="252">
<path d="M-10 -15H227.6V237H-10V-15Z" fill="white"/>
</mask>
<g mask="url(#mask5)">
<mask id="mask6" mask-type="alpha" maskUnits="userSpaceOnUse" x="55" y="0" width="107" height="75">
<path d="M151.235 20.928C148.751 18.39 145.867 16.236 143.062 14.076C142.443 13.6 141.815 13.135 141.209 12.641C141.072 12.528 139.663 11.519 139.494 11.148C139.088 10.254 139.324 10.95 139.38 9.88402C139.45 8.53502 142.2 4.72701 140.148 3.85401C139.246 3.47001 137.636 4.49201 136.77 4.83001C135.081 5.48696 133.359 6.05769 131.612 6.54002C132.451 4.86902 134.05 1.52402 131.044 2.41902C128.703 3.11602 126.521 4.90902 124.168 5.75302C124.947 4.47702 128.06 0.523015 125.247 0.303015C124.371 0.233015 121.824 1.87501 120.882 2.22601C118.059 3.27501 115.175 3.95301 112.211 4.48701C102.133 6.30401 90.348 5.78602 81.023 10.374C73.835 13.911 66.736 19.4 62.583 26.389C58.581 33.125 57.084 40.498 56.246 48.217C55.632 53.882 55.582 59.738 55.869 65.424C55.963 67.287 56.173 75.874 58.879 73.274C60.227 71.978 60.217 66.745 60.557 64.974C61.233 61.451 61.883 57.911 63.01 54.5C64.995 48.49 67.338 45.687 72.284 41.547C75.459 38.89 77.688 35.3 80.725 32.62C82.09 31.416 81.049 31.542 83.243 31.7C84.716 31.806 86.197 31.846 87.673 31.885C91.09 31.974 94.512 31.951 97.929 31.963C104.811 31.988 111.661 32.085 118.537 31.725C121.592 31.565 124.657 31.478 127.703 31.195C129.406 31.038 132.426 29.947 133.828 30.78C135.11 31.543 136.442 34.034 137.363 35.054C139.538 37.464 142.133 39.305 144.676 41.282C149.981 45.403 152.659 46.98 154.27 53.421C155.875 59.838 155.425 65.791 157.412 72.106C157.762 73.216 158.686 75.13 159.826 73.415C160.037 73.096 159.983 71.345 159.983 70.337C159.983 66.27 161.013 63.217 161 59.123C160.95 46.674 160.547 30.442 151.235 20.928V20.928Z" fill="white"/>
</mask>
<g mask="url(#mask6)">
<path d="M151.235 20.928C148.751 18.39 145.867 16.236 143.062 14.076C142.443 13.6 141.815 13.135 141.209 12.641C141.072 12.528 139.663 11.519 139.494 11.148C139.088 10.254 139.324 10.95 139.38 9.88402C139.45 8.53502 142.2 4.72701 140.148 3.85401C139.246 3.47001 137.636 4.49201 136.77 4.83001C135.081 5.48696 133.359 6.05769 131.612 6.54002C132.451 4.86902 134.05 1.52402 131.044 2.41902C128.703 3.11602 126.521 4.90902 124.168 5.75302C124.947 4.47702 128.06 0.523015 125.247 0.303015C124.371 0.233015 121.824 1.87501 120.882 2.22601C118.059 3.27501 115.175 3.95301 112.211 4.48701C102.133 6.30401 90.348 5.78602 81.023 10.374C73.835 13.911 66.736 19.4 62.583 26.389C58.581 33.125 57.084 40.498 56.246 48.217C55.632 53.882 55.582 59.738 55.869 65.424C55.963 67.287 56.173 75.874 58.879 73.274C60.227 71.978 60.217 66.745 60.557 64.974C61.233 61.451 61.883 57.911 63.01 54.5C64.995 48.49 67.338 45.687 72.284 41.547C75.459 38.89 77.688 35.3 80.725 32.62C82.09 31.416 81.049 31.542 83.243 31.7C84.716 31.806 86.197 31.846 87.673 31.885C91.09 31.974 94.512 31.951 97.929 31.963C104.811 31.988 111.661 32.085 118.537 31.725C121.592 31.565 124.657 31.478 127.703 31.195C129.406 31.038 132.426 29.947 133.828 30.78C135.11 31.543 136.442 34.034 137.363 35.054C139.538 37.464 142.133 39.305 144.676 41.282C149.981 45.403 152.659 46.98 154.27 53.421C155.875 59.838 155.425 65.791 157.412 72.106C157.762 73.216 158.686 75.13 159.826 73.415C160.037 73.096 159.983 71.345 159.983 70.337C159.983 66.27 161.013 63.217 161 59.123C160.95 46.674 160.547 30.442 151.235 20.928V20.928Z" fill="#1F3140"/>
<path fill-rule="evenodd" clip-rule="evenodd" d="M-10 -15H229.107V237.406H-10V-15Z" fill="#4A312C"/>
</g>
</g>
</g>
</g>
<defs>
<clipPath id="clip0">
<rect width="217" height="237" fill="white"/>
</clipPath>
</defs>
</svg>
