<svg width="52" height="48" viewBox="0 0 52 48" fill="none" xmlns="http://www.w3.org/2000/svg">
<path d="M44.7643 32.959C42.1165 32.959 39.6784 31.514 38.4069 29.1757L34.54 22.069L31.2891 28.0985C29.6637 31.3038 25.1021 31.7241 23.4505 28.532L20.0424 21.9507L14.904 31.4877L8.74313 31.5271L16.1099 17.5238C17.6698 14.555 21.8775 14.5025 23.5291 17.4187L27.1994 23.9343L30.7648 17.4319C32.364 14.5156 36.5586 14.5025 38.1578 17.4187L43.152 26.4565C44.0565 28.0985 46.5339 27.4548 46.5339 25.5895L46.547 13.5698C46.547 9.10345 42.9161 5.4647 38.4593 5.4647H13.5669C9.11016 5.4647 5.4792 9.10345 5.4792 13.5698V34.4039C5.4792 38.8703 9.11016 42.509 13.5669 42.509H46.9665V48H13.5669C6.08218 48 0 41.9048 0 34.4039V13.5961C0 6.0821 6.06907 0 13.5669 0H38.4331C45.9309 0 52 6.0821 52 13.5961V24.8144V25.7077C52 29.7143 48.7623 32.959 44.7643 32.959Z" fill="#4462FF"/>
</svg>
